<?xml version="1.0" encoding="utf-8"?>
<svg x="78px" y="134px" width="244px" height="131px" viewBox="78 134 244 131" xmlns="http://www.w3.org/2000/svg" xmlns:xlink="http://www.w3.org/1999/xlink">
  <g id="Layer 1">
    <g id="Group">
      <path id="Path 1359" style="fill:#ffffff;fill-opacity:1;fill-rule:nonzero;opacity:1;stroke:#000000;stroke-linecap:butt;stroke-linejoin:miter;stroke-miterlimit:10;stroke-opacity:1;stroke-width:1;" d="M97.85,143.25 C97.85,143.25,302.15,143.25,302.15,143.25"/>
      <path id="Path 1358" style="fill:#ffffff;fill-opacity:1;fill-rule:nonzero;opacity:1;stroke:#000000;stroke-linecap:butt;stroke-linejoin:miter;stroke-miterlimit:10;stroke-opacity:1;stroke-width:1;" d="M89.6212,146.655 C91.8912,144.385,94.6341,143.25,97.85,143.25"/>
      <path id="Path 1357" style="fill:#ffffff;fill-opacity:1;fill-rule:nonzero;opacity:1;stroke:#000000;stroke-linecap:butt;stroke-linejoin:miter;stroke-miterlimit:10;stroke-opacity:1;stroke-width:1;" d="M86.5,154.884 C86.5,151.668,87.5405,148.925,89.6212,146.655"/>
      <path id="Path 1356" style="fill:#ffffff;fill-opacity:1;fill-rule:nonzero;opacity:1;stroke:#000000;stroke-linecap:butt;stroke-linejoin:miter;stroke-miterlimit:10;stroke-opacity:1;stroke-width:1;" d="M86.5,245.4 C86.5,245.4,86.5,154.884,86.5,154.884"/>
      <path id="Path 1355" style="fill:#ffffff;fill-opacity:1;fill-rule:nonzero;opacity:1;stroke:#000000;stroke-linecap:butt;stroke-linejoin:miter;stroke-miterlimit:10;stroke-opacity:1;stroke-width:1;" d="M89.6212,253.629 C87.5405,251.359,86.5,248.616,86.5,245.4"/>
      <path id="Path 1354" style="fill:#ffffff;fill-opacity:1;fill-rule:nonzero;opacity:1;stroke:#000000;stroke-linecap:butt;stroke-linejoin:miter;stroke-miterlimit:10;stroke-opacity:1;stroke-width:1;" d="M97.85,256.75 C94.6341,256.75,91.8912,255.71,89.6212,253.629"/>
      <path id="Path 1353" style="fill:#ffffff;fill-opacity:1;fill-rule:nonzero;opacity:1;stroke:#000000;stroke-linecap:butt;stroke-linejoin:miter;stroke-miterlimit:10;stroke-opacity:1;stroke-width:1;" d="M302.15,256.75 C302.15,256.75,97.85,256.75,97.85,256.75"/>
      <path id="Path 1352" style="fill:#ffffff;fill-opacity:1;fill-rule:nonzero;opacity:1;stroke:#000000;stroke-linecap:butt;stroke-linejoin:miter;stroke-miterlimit:10;stroke-opacity:1;stroke-width:1;" d="M310.095,253.629 C307.825,255.71,305.177,256.75,302.15,256.75"/>
      <path id="Path 1351" style="fill:#ffffff;fill-opacity:1;fill-rule:nonzero;opacity:1;stroke:#000000;stroke-linecap:butt;stroke-linejoin:miter;stroke-miterlimit:10;stroke-opacity:1;stroke-width:1;" d="M313.5,245.4 C313.5,248.616,312.365,251.359,310.095,253.629"/>
      <path id="Path 1350" style="fill:#ffffff;fill-opacity:1;fill-rule:nonzero;opacity:1;stroke:#000000;stroke-linecap:butt;stroke-linejoin:miter;stroke-miterlimit:10;stroke-opacity:1;stroke-width:1;" d="M313.5,154.6 C313.5,154.6,313.5,245.4,313.5,245.4"/>
      <path id="Path 1349" style="fill:#ffffff;fill-opacity:1;fill-rule:nonzero;opacity:1;stroke:#000000;stroke-linecap:butt;stroke-linejoin:miter;stroke-miterlimit:10;stroke-opacity:1;stroke-width:1;" d="M310.095,146.655 C312.365,148.925,313.5,151.573,313.5,154.6"/>
      <path id="Path 1348" style="fill:#ffffff;fill-opacity:1;fill-rule:nonzero;opacity:1;stroke:#000000;stroke-linecap:butt;stroke-linejoin:miter;stroke-miterlimit:10;stroke-opacity:1;stroke-width:1;" d="M302.15,143.25 C305.177,143.25,307.825,144.385,310.095,146.655"/>
      <path id="Path 1280" style="fill:#ffffff;fill-opacity:1;fill-rule:nonzero;opacity:1;stroke:#000000;stroke-linecap:butt;stroke-linejoin:miter;stroke-miterlimit:10;stroke-opacity:1;stroke-width:1;" d="M148.925,188.366 C148.925,188.366,148.925,165.95,148.925,165.95"/>
      <path id="Path 1279" style="fill:#ffffff;fill-opacity:1;fill-rule:nonzero;opacity:1;stroke:#000000;stroke-linecap:butt;stroke-linejoin:miter;stroke-miterlimit:10;stroke-opacity:1;stroke-width:1;" d="M171.341,188.366 C171.341,188.366,148.925,188.366,148.925,188.366"/>
      <path id="Path 1278" style="fill:#ffffff;fill-opacity:1;fill-rule:nonzero;opacity:1;stroke:#000000;stroke-linecap:butt;stroke-linejoin:miter;stroke-miterlimit:10;stroke-opacity:1;stroke-width:1;" d="M171.341,211.066 C171.341,211.066,171.341,188.366,171.341,188.366"/>
      <path id="Path 1277" style="fill:#ffffff;fill-opacity:1;fill-rule:nonzero;opacity:1;stroke:#000000;stroke-linecap:butt;stroke-linejoin:miter;stroke-miterlimit:10;stroke-opacity:1;stroke-width:1;" d="M148.925,211.066 C148.925,211.066,171.341,211.066,171.341,211.066"/>
      <path id="Path 1276" style="fill:#ffffff;fill-opacity:1;fill-rule:nonzero;opacity:1;stroke:#000000;stroke-linecap:butt;stroke-linejoin:miter;stroke-miterlimit:10;stroke-opacity:1;stroke-width:1;" d="M148.925,233.766 C148.925,233.766,148.925,211.066,148.925,211.066"/>
      <path id="Path 1275" style="fill:#ffffff;fill-opacity:1;fill-rule:nonzero;opacity:1;stroke:#000000;stroke-linecap:butt;stroke-linejoin:miter;stroke-miterlimit:10;stroke-opacity:1;stroke-width:1;" d="M126.225,233.766 C126.225,233.766,148.925,233.766,148.925,233.766"/>
      <path id="Path 1274" style="fill:#ffffff;fill-opacity:1;fill-rule:nonzero;opacity:1;stroke:#000000;stroke-linecap:butt;stroke-linejoin:miter;stroke-miterlimit:10;stroke-opacity:1;stroke-width:1;" d="M126.225,211.066 C126.225,211.066,126.225,233.766,126.225,233.766"/>
      <path id="Path 1273" style="fill:#ffffff;fill-opacity:1;fill-rule:nonzero;opacity:1;stroke:#000000;stroke-linecap:butt;stroke-linejoin:miter;stroke-miterlimit:10;stroke-opacity:1;stroke-width:1;" d="M103.525,211.066 C103.525,211.066,126.225,211.066,126.225,211.066"/>
      <path id="Path 1272" style="fill:#ffffff;fill-opacity:1;fill-rule:nonzero;opacity:1;stroke:#000000;stroke-linecap:butt;stroke-linejoin:miter;stroke-miterlimit:10;stroke-opacity:1;stroke-width:1;" d="M103.525,188.366 C103.525,188.366,103.525,211.066,103.525,211.066"/>
      <path id="Path 1271" style="fill:#ffffff;fill-opacity:1;fill-rule:nonzero;opacity:1;stroke:#000000;stroke-linecap:butt;stroke-linejoin:miter;stroke-miterlimit:10;stroke-opacity:1;stroke-width:1;" d="M126.225,188.366 C126.225,188.366,103.525,188.366,103.525,188.366"/>
      <path id="Path 1270" style="fill:#ffffff;fill-opacity:1;fill-rule:nonzero;opacity:1;stroke:#000000;stroke-linecap:butt;stroke-linejoin:miter;stroke-miterlimit:10;stroke-opacity:1;stroke-width:1;" d="M126.225,165.95 C126.225,165.95,126.225,188.366,126.225,188.366"/>
      <path id="Path 1269" style="fill:#ffffff;fill-opacity:1;fill-rule:nonzero;opacity:1;stroke:#000000;stroke-linecap:butt;stroke-linejoin:miter;stroke-miterlimit:10;stroke-opacity:1;stroke-width:1;" d="M148.925,165.95 C148.925,165.95,126.225,165.95,126.225,165.95"/>
      <path id="Path 1268" style="fill:#ffffff;fill-opacity:1;fill-rule:nonzero;opacity:1;stroke:#000000;stroke-linecap:butt;stroke-linejoin:miter;stroke-miterlimit:10;stroke-opacity:1;stroke-width:1;" d="M293.07,207.945 C295.34,205.864,296.475,203.216,296.475,200"/>
      <path id="Path 1267" style="fill:#ffffff;fill-opacity:1;fill-rule:nonzero;opacity:1;stroke:#000000;stroke-linecap:butt;stroke-linejoin:miter;stroke-miterlimit:10;stroke-opacity:1;stroke-width:1;" d="M285.125,211.35 C288.152,211.35,290.8,210.215,293.07,207.945"/>
      <path id="Path 1266" style="fill:#ffffff;fill-opacity:1;fill-rule:nonzero;opacity:1;stroke:#000000;stroke-linecap:butt;stroke-linejoin:miter;stroke-miterlimit:10;stroke-opacity:1;stroke-width:1;" d="M276.896,207.945 C279.166,210.215,281.909,211.35,285.125,211.35"/>
      <path id="Path 1265" style="fill:#ffffff;fill-opacity:1;fill-rule:nonzero;opacity:1;stroke:#000000;stroke-linecap:butt;stroke-linejoin:miter;stroke-miterlimit:10;stroke-opacity:1;stroke-width:1;" d="M273.775,200 C273.775,203.216,274.815,205.864,276.896,207.945"/>
      <path id="Path 1264" style="fill:#ffffff;fill-opacity:1;fill-rule:nonzero;opacity:1;stroke:#000000;stroke-linecap:butt;stroke-linejoin:miter;stroke-miterlimit:10;stroke-opacity:1;stroke-width:1;" d="M276.896,192.055 C274.815,194.325,273.775,196.973,273.775,200"/>
      <path id="Path 1263" style="fill:#ffffff;fill-opacity:1;fill-rule:nonzero;opacity:1;stroke:#000000;stroke-linecap:butt;stroke-linejoin:miter;stroke-miterlimit:10;stroke-opacity:1;stroke-width:1;" d="M285.125,188.65 C281.909,188.65,279.166,189.785,276.896,192.055"/>
      <path id="Path 1262" style="fill:#ffffff;fill-opacity:1;fill-rule:nonzero;opacity:1;stroke:#000000;stroke-linecap:butt;stroke-linejoin:miter;stroke-miterlimit:10;stroke-opacity:1;stroke-width:1;" d="M293.07,192.055 C290.8,189.785,288.152,188.65,285.125,188.65"/>
      <path id="Path 1261" style="fill:#ffffff;fill-opacity:1;fill-rule:nonzero;opacity:1;stroke:#000000;stroke-linecap:butt;stroke-linejoin:miter;stroke-miterlimit:10;stroke-opacity:1;stroke-width:1;" d="M296.475,200 C296.475,196.973,295.34,194.325,293.07,192.055"/>
      <path id="Path 1260" style="fill:#ffffff;fill-opacity:1;fill-rule:nonzero;opacity:1;stroke:#000000;stroke-linecap:butt;stroke-linejoin:miter;stroke-miterlimit:10;stroke-opacity:1;stroke-width:1;" d="M253.345,207.945 C255.615,205.864,256.75,203.216,256.75,200"/>
      <path id="Path 1259" style="fill:#ffffff;fill-opacity:1;fill-rule:nonzero;opacity:1;stroke:#000000;stroke-linecap:butt;stroke-linejoin:miter;stroke-miterlimit:10;stroke-opacity:1;stroke-width:1;" d="M245.4,211.35 C248.427,211.35,251.075,210.215,253.345,207.945"/>
      <path id="Path 1258" style="fill:#ffffff;fill-opacity:1;fill-rule:nonzero;opacity:1;stroke:#000000;stroke-linecap:butt;stroke-linejoin:miter;stroke-miterlimit:10;stroke-opacity:1;stroke-width:1;" d="M237.171,207.945 C239.441,210.215,242.184,211.35,245.4,211.35"/>
      <path id="Path 1257" style="fill:#ffffff;fill-opacity:1;fill-rule:nonzero;opacity:1;stroke:#000000;stroke-linecap:butt;stroke-linejoin:miter;stroke-miterlimit:10;stroke-opacity:1;stroke-width:1;" d="M234.05,200 C234.05,203.216,235.09,205.864,237.171,207.945"/>
      <path id="Path 1256" style="fill:#ffffff;fill-opacity:1;fill-rule:nonzero;opacity:1;stroke:#000000;stroke-linecap:butt;stroke-linejoin:miter;stroke-miterlimit:10;stroke-opacity:1;stroke-width:1;" d="M237.171,192.055 C235.09,194.325,234.05,196.973,234.05,200"/>
      <path id="Path 1255" style="fill:#ffffff;fill-opacity:1;fill-rule:nonzero;opacity:1;stroke:#000000;stroke-linecap:butt;stroke-linejoin:miter;stroke-miterlimit:10;stroke-opacity:1;stroke-width:1;" d="M245.4,188.65 C242.184,188.65,239.441,189.785,237.171,192.055"/>
      <path id="Path 1254" style="fill:#ffffff;fill-opacity:1;fill-rule:nonzero;opacity:1;stroke:#000000;stroke-linecap:butt;stroke-linejoin:miter;stroke-miterlimit:10;stroke-opacity:1;stroke-width:1;" d="M253.345,192.055 C251.075,189.785,248.427,188.65,245.4,188.65"/>
      <path id="controller" style="fill:#ffffff;fill-opacity:1;fill-rule:nonzero;opacity:1;stroke:#000000;stroke-linecap:butt;stroke-linejoin:miter;stroke-miterlimit:10;stroke-opacity:1;stroke-width:1;" d="M256.75,200 C256.75,196.973,255.615,194.325,253.345,192.055"/>
    </g>
    <text id="Text" style="fill:#000000;font-family:Futura;font-size:12;" transform="matrix(1,0,0,1,111.5,192)">
      <tspan x="0" y="12">0</tspan>
    </text>
    <text id="Text" style="fill:#000000;font-family:Futura;font-size:12;" transform="matrix(1,0,0,1,158,192)">
      <tspan x="0" y="12">1</tspan>
    </text>
    <text id="Text Copy" style="fill:#000000;font-family:Futura;font-size:12;" transform="matrix(1,0,0,1,241.594,192)">
      <tspan x="0" y="12">5</tspan>
    </text>
    <text id="Text Copy 1" style="fill:#000000;font-family:Futura;font-size:12;" transform="matrix(1,0,0,1,281,192)">
      <tspan x="0" y="12">4</tspan>
    </text>
    <text id="Text" style="fill:#000000;font-family:Futura;font-size:12;" transform="matrix(1,0,0,1,133.594,171)">
      <tspan x="0" y="12">2</tspan>
    </text>
    <text id="Text" style="fill:#000000;font-family:Futura;font-size:12;" transform="matrix(1,0,0,1,134,214)">
      <tspan x="0" y="12">3</tspan>
    </text>
  </g>
</svg>
