<?xml version="1.0" encoding="utf-8"?>
<svg x="0px" y="0px" width="400px" height="281.9px" viewBox="0 0 400 281.9" xmlns="http://www.w3.org/2000/svg" xmlns:xlink="http://www.w3.org/1999/xlink">
  <g id="exploded">
    <g id="Path 1303">
      <path style="fill:#000000;fill-opacity:1;fill-rule:evenodd;opacity:1;stroke:none;" d="M252.164,154.93 C252.164,154.93,263.837,123.168,263.837,123.168 C263.837,123.168,272.962,123.168,272.962,123.168 C272.962,123.168,272.962,116.222,272.962,116.222 C272.962,116.222,266.389,116.222,266.389,116.222 C266.389,116.222,309.1,9.78894e-12,309.1,9.78894e-12 C309.1,9.78894e-12,401,0,401,0 C401,0,401,282,401,282 C401,282,205.504,281.9,205.504,281.9 C205.504,281.9,247.694,167.095,247.694,167.095 C248.296,167.256,248.918,167.336,249.56,167.336 C250.296,167.336,250.955,167.237,251.536,167.04 C252.117,166.843,252.608,166.565,253.008,166.208 C253.408,165.851,253.712,165.421,253.92,164.92 C254.128,164.419,254.232,163.859,254.232,163.24 C254.232,162.323,253.995,161.579,253.52,161.008 C253.045,160.437,252.296,159.981,251.272,159.64 C251.024,159.557,250.773,159.479,250.519,159.407 C250.519,159.407,251.278,157.342,251.278,157.342 C251.34,157.362,251.402,157.384,251.464,157.408 C251.805,157.541,252.147,157.747,252.488,158.024 C252.488,158.024,253.736,155.576,253.736,155.576 C253.231,155.306,252.707,155.09,252.164,154.93 z"/>
    </g>
    <g id="left">
      <path style="fill:#000000;fill-opacity:1;fill-rule:evenodd;opacity:1;stroke:none;" d="M143.492,132 C125.129,181.967,106.767,231.933,88.4048,281.9 C88.4048,281.9,1.42109e-14,281.9,1.42109e-14,281.9 C1.42109e-14,281.9,1.42109e-14,-7.69275e-19,1.42109e-14,-7.69275e-19 C1.42109e-14,-7.69275e-19,192.001,-7.69275e-19,192.001,-7.69275e-19 C192.001,5.46369e-05,192.001,0.000112382,192,0.000172468 C180.08,32.4388,168.159,64.8774,156.238,97.316 C156.238,97.316,151.522,97.316,151.522,97.316 C151.522,97.316,138.32,132,138.32,132 C138.32,132,143.492,132,143.492,132 z"/>
    </g>
    <g id="title">
      <path style="fill:#ffffff;fill-opacity:1;fill-rule:nonzero;opacity:1;stroke:none;" d="M99.634,132 C99.634,132,99.634,97.316,99.634,97.316 C99.634,97.316,108.65,97.316,108.65,97.316 C108.65,97.316,125.302,118.522,125.302,118.522 C125.302,118.522,125.302,97.316,125.302,97.316 C125.302,97.316,134.272,97.316,134.272,97.316 C134.272,97.316,134.272,132,134.272,132 C134.272,132,125.302,132,125.302,132 C125.302,132,108.65,110.794,108.65,110.794 C108.65,110.794,108.65,132,108.65,132 C108.65,132,99.634,132,99.634,132 z"/>
    </g>
    <g id="title">
      <path style="fill:#000000;fill-opacity:1;fill-rule:nonzero;opacity:1;stroke:none;" d="M178.524,132 C178.524,132,178.524,97.316,178.524,97.316 C178.524,97.316,187.54,97.316,187.54,97.316 C187.54,97.316,204.192,118.522,204.192,118.522 C204.192,118.522,204.192,97.316,204.192,97.316 C204.192,97.316,213.162,97.316,213.162,97.316 C213.162,97.316,213.162,132,213.162,132 C213.162,132,204.192,132,204.192,132 C204.192,132,187.54,110.794,187.54,110.794 C187.54,110.794,187.54,132,187.54,132 C187.54,132,178.524,132,178.524,132 z"/>
    </g>
    <g id="title">
      <path style="fill:#000000;fill-opacity:1;fill-rule:nonzero;opacity:1;stroke:none;" d="M228.71,114.658 C228.71,116.038,228.971,117.311,229.492,118.476 C230.013,119.641,230.719,120.653,231.608,121.512 C232.497,122.371,233.532,123.038,234.713,123.513 C235.894,123.988,237.143,124.226,238.462,124.226 C239.781,124.226,241.03,123.988,242.211,123.513 C243.392,123.038,244.434,122.371,245.339,121.512 C246.244,120.653,246.957,119.641,247.478,118.476 C247.999,117.311,248.26,116.038,248.26,114.658 C248.26,113.278,247.999,112.005,247.478,110.84 C246.957,109.675,246.244,108.663,245.339,107.804 C244.434,106.945,243.392,106.278,242.211,105.803 C241.03,105.328,239.781,105.09,238.462,105.09 C237.143,105.09,235.894,105.328,234.713,105.803 C233.532,106.278,232.497,106.945,231.608,107.804 C230.719,108.663,230.013,109.675,229.492,110.84 C228.971,112.005,228.71,113.278,228.71,114.658 z M219.28,114.658 C219.28,112.082,219.755,109.682,220.706,107.459 C221.657,105.236,222.975,103.296,224.662,101.64 C226.349,99.984,228.365,98.6883,230.711,97.753 C233.057,96.8177,235.641,96.35,238.462,96.35 C241.253,96.35,243.829,96.8177,246.19,97.753 C248.551,98.6883,250.583,99.984,252.285,101.64 C253.987,103.296,255.313,105.236,256.264,107.459 C257.215,109.682,257.69,112.082,257.69,114.658 C257.69,117.234,257.215,119.634,256.264,121.857 C255.313,124.08,253.987,126.02,252.285,127.676 C250.583,129.332,248.551,130.628,246.19,131.563 C243.829,132.498,241.253,132.966,238.462,132.966 C235.641,132.966,233.057,132.498,230.711,131.563 C228.365,130.628,226.349,129.332,224.662,127.676 C222.975,126.02,221.657,124.08,220.706,121.857 C219.755,119.634,219.28,117.234,219.28,114.658 z"/>
    </g>
    <g id="title">
      <path style="fill:#ffffff;fill-opacity:1;fill-rule:nonzero;opacity:1;stroke:none;" d="M279.448,132 C279.448,132,289.292,120.684,289.292,120.684 C289.292,120.684,289.108,120.684,289.108,120.684 C288.249,121.205,287.544,121.52,286.992,121.627 C286.44,121.734,285.949,121.788,285.52,121.788 C283.833,121.788,282.277,121.466,280.851,120.822 C279.425,120.178,278.198,119.296,277.171,118.177 C276.144,117.058,275.339,115.747,274.756,114.244 C274.173,112.741,273.882,111.131,273.882,109.414 C273.882,107.574,274.219,105.864,274.894,104.285 C275.569,102.706,276.542,101.326,277.815,100.145 C279.088,98.9643,280.629,98.0367,282.438,97.362 C284.247,96.6873,286.287,96.35,288.556,96.35 C290.856,96.35,292.911,96.6873,294.72,97.362 C296.529,98.0367,298.07,98.9567,299.343,100.122 C300.616,101.287,301.589,102.644,302.264,104.193 C302.939,105.742,303.276,107.39,303.276,109.138 C303.276,111.101,302.839,113.224,301.965,115.509 C301.091,117.794,299.749,120.04,297.94,122.248 C297.94,122.248,289.89,132,289.89,132 C289.89,132,279.448,132,279.448,132 z M294.352,109.23 C294.352,108.433,294.199,107.689,293.892,106.999 C293.585,106.309,293.171,105.703,292.65,105.182 C292.129,104.661,291.523,104.247,290.833,103.94 C290.143,103.633,289.399,103.48,288.602,103.48 C287.805,103.48,287.061,103.633,286.371,103.94 C285.681,104.247,285.075,104.661,284.554,105.182 C284.033,105.703,283.619,106.309,283.312,106.999 C283.005,107.689,282.852,108.433,282.852,109.23 C282.852,110.027,283.005,110.771,283.312,111.461 C283.619,112.151,284.033,112.757,284.554,113.278 C285.075,113.799,285.681,114.213,286.371,114.52 C287.061,114.827,287.805,114.98,288.602,114.98 C289.399,114.98,290.143,114.827,290.833,114.52 C291.523,114.213,292.129,113.799,292.65,113.278 C293.171,112.757,293.585,112.151,293.892,111.461 C294.199,110.771,294.352,110.027,294.352,109.23 z"/>
    </g>
    <g id="subtitle">
      <path style="fill:#000000;fill-opacity:1;fill-rule:nonzero;opacity:1;stroke:none;" d="M152.888,158.024 C152.547,157.747,152.205,157.541,151.864,157.408 C151.523,157.275,151.192,157.208,150.872,157.208 C150.467,157.208,150.136,157.304,149.88,157.496 C149.624,157.688,149.496,157.939,149.496,158.248 C149.496,158.461,149.56,158.637,149.688,158.776 C149.816,158.915,149.984,159.035,150.192,159.136 C150.4,159.237,150.635,159.325,150.896,159.4 C151.157,159.475,151.416,159.555,151.672,159.64 C152.696,159.981,153.445,160.437,153.92,161.008 C154.395,161.579,154.632,162.323,154.632,163.24 C154.632,163.859,154.528,164.419,154.32,164.92 C154.112,165.421,153.808,165.851,153.408,166.208 C153.008,166.565,152.517,166.843,151.936,167.04 C151.355,167.237,150.696,167.336,149.96,167.336 C148.435,167.336,147.021,166.883,145.72,165.976 C145.72,165.976,147.064,163.448,147.064,163.448 C147.533,163.864,147.997,164.173,148.456,164.376 C148.915,164.579,149.368,164.68,149.816,164.68 C150.328,164.68,150.709,164.563,150.96,164.328 C151.211,164.093,151.336,163.827,151.336,163.528 C151.336,163.347,151.304,163.189,151.24,163.056 C151.176,162.923,151.069,162.8,150.92,162.688 C150.771,162.576,150.576,162.472,150.336,162.376 C150.096,162.28,149.805,162.173,149.464,162.056 C149.059,161.928,148.661,161.787,148.272,161.632 C147.883,161.477,147.536,161.272,147.232,161.016 C146.928,160.76,146.683,160.437,146.496,160.048 C146.309,159.659,146.216,159.165,146.216,158.568 C146.216,157.971,146.315,157.429,146.512,156.944 C146.709,156.459,146.987,156.043,147.344,155.696 C147.701,155.349,148.139,155.08,148.656,154.888 C149.173,154.696,149.752,154.6,150.392,154.6 C150.989,154.6,151.613,154.683,152.264,154.848 C152.915,155.013,153.539,155.256,154.136,155.576 C154.136,155.576,152.888,158.024,152.888,158.024 z"/>
    </g>
    <g id="subtitle">
      <path style="fill:#000000;fill-opacity:1;fill-rule:nonzero;opacity:1;stroke:none;" d="M159.736,159.592 C159.736,159.592,164.264,159.592,164.264,159.592 C164.264,159.592,164.264,154.936,164.264,154.936 C164.264,154.936,167.4,154.936,167.4,154.936 C167.4,154.936,167.4,167,167.4,167 C167.4,167,164.264,167,164.264,167 C164.264,167,164.264,162.024,164.264,162.024 C164.264,162.024,159.736,162.024,159.736,162.024 C159.736,162.024,159.736,167,159.736,167 C159.736,167,156.6,167,156.6,167 C156.6,167,156.6,154.936,156.6,154.936 C156.6,154.936,159.736,154.936,159.736,154.936 C159.736,154.936,159.736,159.592,159.736,159.592 z"/>
    </g>
    <g id="subtitle">
      <path style="fill:#000000;fill-opacity:1;fill-rule:nonzero;opacity:1;stroke:none;" d="M176.488,162.52 C176.488,162.52,175.08,158.504,175.08,158.504 C175.08,158.504,173.672,162.52,173.672,162.52 C173.672,162.52,176.488,162.52,176.488,162.52 z M177.32,164.904 C177.32,164.904,172.84,164.904,172.84,164.904 C172.84,164.904,172.12,167,172.12,167 C172.12,167,168.776,167,168.776,167 C168.776,167,173.368,154.936,173.368,154.936 C173.368,154.936,176.792,154.936,176.792,154.936 C176.792,154.936,181.384,167,181.384,167 C181.384,167,178.04,167,178.04,167 C178.04,167,177.32,164.904,177.32,164.904 z"/>
    </g>
    <g id="subtitle">
      <path style="fill:#000000;fill-opacity:1;fill-rule:nonzero;opacity:1;stroke:none;" d="M182.76,167 C182.76,167,182.76,154.936,182.76,154.936 C182.76,154.936,185.896,154.936,185.896,154.936 C185.896,154.936,191.688,162.312,191.688,162.312 C191.688,162.312,191.688,154.936,191.688,154.936 C191.688,154.936,194.808,154.936,194.808,154.936 C194.808,154.936,194.808,167,194.808,167 C194.808,167,191.688,167,191.688,167 C191.688,167,185.896,159.624,185.896,159.624 C185.896,159.624,185.896,167,185.896,167 C185.896,167,182.76,167,182.76,167 z"/>
    </g>
    <g id="subtitle">
      <path style="fill:#000000;fill-opacity:1;fill-rule:nonzero;opacity:1;stroke:none;" d="M204.2,157.592 C204.2,157.592,200.472,157.592,200.472,157.592 C200.472,157.592,200.472,159.608,200.472,159.608 C200.472,159.608,203.992,159.608,203.992,159.608 C203.992,159.608,203.992,162.264,203.992,162.264 C203.992,162.264,200.472,162.264,200.472,162.264 C200.472,162.264,200.472,164.344,200.472,164.344 C200.472,164.344,204.2,164.344,204.2,164.344 C204.2,164.344,204.2,167,204.2,167 C204.2,167,197.336,167,197.336,167 C197.336,167,197.336,154.936,197.336,154.936 C197.336,154.936,204.2,154.936,204.2,154.936 C204.2,154.936,204.2,157.592,204.2,157.592 z"/>
    </g>
    <g id="subtitle">
      <path style="fill:#000000;fill-opacity:1;fill-rule:nonzero;opacity:1;stroke:none;" d="M220.584,158.968 C219.859,158.083,218.963,157.64,217.896,157.64 C217.427,157.64,216.992,157.725,216.592,157.896 C216.192,158.067,215.848,158.299,215.56,158.592 C215.272,158.885,215.045,159.235,214.88,159.64 C214.715,160.045,214.632,160.483,214.632,160.952 C214.632,161.432,214.715,161.875,214.88,162.28 C215.045,162.685,215.275,163.037,215.568,163.336 C215.861,163.635,216.205,163.869,216.6,164.04 C216.995,164.211,217.421,164.296,217.88,164.296 C218.883,164.296,219.784,163.869,220.584,163.016 C220.584,163.016,220.584,166.728,220.584,166.728 C220.584,166.728,220.264,166.84,220.264,166.84 C219.784,167.011,219.336,167.136,218.92,167.216 C218.504,167.296,218.093,167.336,217.688,167.336 C216.856,167.336,216.059,167.179,215.296,166.864 C214.533,166.549,213.861,166.107,213.28,165.536 C212.699,164.965,212.232,164.288,211.88,163.504 C211.528,162.72,211.352,161.864,211.352,160.936 C211.352,160.008,211.525,159.157,211.872,158.384 C212.219,157.611,212.683,156.944,213.264,156.384 C213.845,155.824,214.52,155.387,215.288,155.072 C216.056,154.757,216.861,154.6,217.704,154.6 C218.184,154.6,218.656,154.651,219.12,154.752 C219.584,154.853,220.072,155.011,220.584,155.224 C220.584,155.224,220.584,158.968,220.584,158.968 z"/>
    </g>
    <g id="subtitle">
      <path style="fill:#000000;fill-opacity:1;fill-rule:nonzero;opacity:1;stroke:none;" d="M229.432,157.592 C229.432,157.592,225.704,157.592,225.704,157.592 C225.704,157.592,225.704,159.608,225.704,159.608 C225.704,159.608,229.224,159.608,229.224,159.608 C229.224,159.608,229.224,162.264,229.224,162.264 C229.224,162.264,225.704,162.264,225.704,162.264 C225.704,162.264,225.704,164.344,225.704,164.344 C225.704,164.344,229.432,164.344,229.432,164.344 C229.432,164.344,229.432,167,229.432,167 C229.432,167,222.568,167,222.568,167 C222.568,167,222.568,154.936,222.568,154.936 C222.568,154.936,229.432,154.936,229.432,154.936 C229.432,154.936,229.432,157.592,229.432,157.592 z"/>
    </g>
    <g id="subtitle">
      <path style="fill:#000000;fill-opacity:1;fill-rule:nonzero;opacity:1;stroke:none;" d="M234.824,154.936 C234.824,154.936,234.824,164.344,234.824,164.344 C234.824,164.344,238.584,164.344,238.584,164.344 C238.584,164.344,238.584,167,238.584,167 C238.584,167,231.688,167,231.688,167 C231.688,167,231.688,154.936,231.688,154.936 C231.688,154.936,234.824,154.936,234.824,154.936 z"/>
    </g>
    <g id="subtitle">
      <path style="fill:#000000;fill-opacity:1;fill-rule:nonzero;opacity:1;stroke:none;" d="M243.336,154.936 C243.336,154.936,243.336,167,243.336,167 C243.336,167,240.2,167,240.2,167 C240.2,167,240.2,154.936,240.2,154.936 C240.2,154.936,243.336,154.936,243.336,154.936 z"/>
    </g>
    <g id="Path 1308">
      <path style="fill:#ffffff;fill-opacity:1;fill-rule:evenodd;opacity:1;stroke:none;" d="M263.837,123.168 C263.837,123.168,266.389,116.222,266.389,116.222 C266.389,116.222,272.962,116.222,272.962,116.222 C272.962,116.222,272.962,123.168,272.962,123.168 C272.962,123.168,263.837,123.168,263.837,123.168 z"/>
    </g>
    <g id="Path 1305">
      <path style="fill:#000000;fill-opacity:1;fill-rule:evenodd;opacity:1;stroke:none;" d="M266.389,116.222 C266.389,116.222,259.76,116.222,259.76,116.222 C259.76,116.222,259.76,123.168,259.76,123.168 C259.76,123.168,263.837,123.168,263.837,123.168 C263.837,123.168,266.389,116.222,266.389,116.222 z"/>
    </g>
    <g id="Path 1310">
      <path style="fill:#ffffff;fill-opacity:1;fill-rule:evenodd;opacity:1;stroke:none;" d="M251.278,157.342 C251.278,157.342,252.164,154.93,252.164,154.93 C252.707,155.09,253.231,155.306,253.736,155.576 C253.736,155.576,252.488,158.024,252.488,158.024 C252.147,157.747,251.805,157.541,251.464,157.408 C251.402,157.384,251.34,157.362,251.278,157.342 z"/>
    </g>
    <g id="Path 1309">
      <path style="fill:#ffffff;fill-opacity:1;fill-rule:evenodd;opacity:1;stroke:none;" d="M247.694,167.095 C247.694,167.095,248.62,164.575,248.62,164.575 C248.887,164.645,249.152,164.68,249.416,164.68 C249.928,164.68,250.309,164.563,250.56,164.328 C250.811,164.093,250.936,163.827,250.936,163.528 C250.936,163.347,250.904,163.189,250.84,163.056 C250.776,162.923,250.669,162.8,250.52,162.688 C250.371,162.576,250.176,162.472,249.936,162.376 C249.803,162.323,249.654,162.266,249.49,162.207 C249.49,162.207,250.519,159.407,250.519,159.407 C250.773,159.479,251.024,159.557,251.272,159.64 C252.296,159.981,253.045,160.437,253.52,161.008 C253.995,161.579,254.232,162.323,254.232,163.24 C254.232,163.859,254.128,164.419,253.92,164.92 C253.712,165.421,253.408,165.851,253.008,166.208 C252.608,166.565,252.117,166.843,251.536,167.04 C250.955,167.237,250.296,167.336,249.56,167.336 C248.918,167.336,248.296,167.256,247.694,167.095 z"/>
    </g>
    <g id="Path 1307">
      <path style="fill:#000000;fill-opacity:1;fill-rule:evenodd;opacity:1;stroke:none;" d="M247.694,167.095 C246.865,166.874,246.074,166.501,245.32,165.976 C245.32,165.976,246.664,163.448,246.664,163.448 C247.133,163.864,247.597,164.173,248.056,164.376 C248.245,164.459,248.433,164.526,248.62,164.575 C248.62,164.575,247.694,167.095,247.694,167.095 C247.694,167.095,247.694,167.095,247.694,167.095 z"/>
    </g>
    <g id="Path 1306">
      <path style="fill:#000000;fill-opacity:1;fill-rule:evenodd;opacity:1;stroke:none;" d="M251.278,157.342 C251.002,157.253,250.734,157.208,250.472,157.208 C250.067,157.208,249.736,157.304,249.48,157.496 C249.224,157.688,249.096,157.939,249.096,158.248 C249.096,158.461,249.16,158.637,249.288,158.776 C249.416,158.915,249.584,159.035,249.792,159.136 C250,159.237,250.235,159.325,250.496,159.4 C250.504,159.402,250.511,159.404,250.519,159.407 C250.519,159.407,249.49,162.207,249.49,162.207 C249.358,162.158,249.216,162.108,249.064,162.056 C248.659,161.928,248.261,161.787,247.872,161.632 C247.483,161.477,247.136,161.272,246.832,161.016 C246.528,160.76,246.283,160.437,246.096,160.048 C245.909,159.659,245.816,159.165,245.816,158.568 C245.816,157.971,245.915,157.429,246.112,156.944 C246.309,156.459,246.587,156.043,246.944,155.696 C247.301,155.349,247.739,155.08,248.256,154.888 C248.773,154.696,249.352,154.6,249.992,154.6 C250.589,154.6,251.213,154.683,251.864,154.848 C251.965,154.874,252.065,154.901,252.164,154.93 C252.164,154.93,251.278,157.342,251.278,157.342 z"/>
    </g>
    <g id="Path 1304">
      <path style="fill:#000000;fill-opacity:1;fill-rule:evenodd;opacity:1;stroke:none;" d="M249.49,162.207 C249.49,162.207,248.62,164.575,248.62,164.575 C248.887,164.645,249.152,164.68,249.416,164.68 C249.928,164.68,250.309,164.563,250.56,164.328 C250.811,164.093,250.936,163.827,250.936,163.528 C250.936,163.347,250.904,163.189,250.84,163.056 C250.776,162.923,250.669,162.8,250.52,162.688 C250.371,162.576,250.176,162.472,249.936,162.376 C249.803,162.323,249.654,162.266,249.49,162.207 z"/>
    </g>
    <g id="A left">
      <path style="fill:#ffffff;fill-opacity:1;fill-rule:evenodd;opacity:1;stroke:none;" d="M143.492,132 C143.492,132,138.32,132,138.32,132 C138.32,132,151.522,97.316,151.522,97.316 C151.522,97.316,156.238,97.316,156.238,97.316 C151.989,108.877,147.74,120.439,143.492,132 z"/>
    </g>
    <g id="A right">
      <path style="fill:#000000;fill-opacity:1;fill-rule:evenodd;opacity:1;stroke:none;" d="M143.492,132 C143.492,132,147.934,132,147.934,132 C147.934,132,150.004,125.974,150.004,125.974 C150.004,125.974,162.884,125.974,162.884,125.974 C162.884,125.974,164.954,132,164.954,132 C164.954,132,174.568,132,174.568,132 C174.568,132,161.366,97.316,161.366,97.316 C161.366,97.316,156.238,97.316,156.238,97.316 C151.989,108.877,147.74,120.439,143.492,132 z M160.492,119.12 C160.492,119.12,156.444,107.574,156.444,107.574 C156.444,107.574,152.396,119.12,152.396,119.12 C152.396,119.12,160.492,119.12,160.492,119.12 z"/>
    </g>
  </g>
</svg>
